<?xml version="1.0" encoding="UTF-8" standalone="no"?>
<svg
   xmlnsDc="http://purl.org/dc/elements/1.1/"
   xmlnsCc="http://creativecommons.org/ns#"
   xmlnsRdf="http://www.w3.org/1999/02/22-rdf-syntax-ns#"
   xmlnsSvg="http://www.w3.org/2000/svg"
   xmlns="http://www.w3.org/2000/svg"
   width="293.09995"
   height="293.09995"
   viewBox="0 0 77.54936 77.549355"
   version="1.1"
   id="svg842">
  <defs
     id="defs836" />
  <metadata
     id="metadata839">
    <rdfRDF>
      <ccWork
         rdfAbout="">
        <dcFormat>image/svg+xml</dcFormat>
        <dcType
           rdfResource="http://purl.org/dc/dcmitype/StillImage" />
        <dcTitle></dcTitle>
      </ccWork>
    </rdfRDF>
  </metadata>
  <g
     id="layer1"
     transform="translate(319.45587,-128.51102)">
    <g
       id="g816"
       transform="matrix(0.86977451,0,0,0.86977451,-148.50424,56.291637)">
      <path
         id="path4"
         style="fill:#333333;stroke-width:0.23025864"
         d="m -124.969,154.70344 v -24.92777 q 0,-7.815 -6.44724,-7.81728 -6.44723,-0.003 -6.46103,7.81728 v 24.92777 h -12.69882 v -24.92777 q 0,-7.815 -6.34824,-7.81728 -6.45876,0 -6.44724,7.81728 v 24.92777 h -12.70103 v -26.39915 q 0,-8.15808 5.66429,-12.34878 4.9875,-3.74166 13.48398,-3.74166 8.61402,0 12.69192,4.41864 3.51372,-4.41864 12.80693,-4.41864 8.49654,0 13.47936,3.74166 5.66436,4.18842 5.6667,12.34878 v 26.39915 z" />
      <path
         id="path16"
         style="fill:#ff9955;fill-opacity:1;stroke-width:0.23025864"
         d="m -151.41879,110.29343 12.60438,-9.21036 -0.1614,-0.5616 c -22.74498,2.78844 -33.08819,4.764 -52.67861,16.12044 l 0.1818,0.5154 1.55652,0.012 c -0.1428,1.5681 -0.3912,5.44332 -0.0744,11.27118 -2.17356,6.29064 -0.054,10.56431 1.93422,15.21317 0.3156,-4.8354 0.2832,-10.13141 -1.20198,-15.40193 -0.3108,-5.7888 -0.054,-9.5949 0.0852,-11.07546 l 12.98658,0.1242 a 59.406734,59.406734 0 0 0 0.384,7.61244 c 11.60501,4.0779 23.27681,-0.012 29.47307,-10.06692 -1.72002,-1.92726 -5.091,-4.55682 -5.091,-4.55682 z" />
    </g>
  </g>
</svg>
